<svg width="151" height="124" viewBox="0 0 151 124" fill="none" xmlns="http://www.w3.org/2000/svg">
<path d="M106.273 22.3856C101.238 22.1896 98.9901 23.1133 97.4863 26.0677C96.2193 28.6447 96.007 33.2339 97.0056 38.1136C97.249 39.2301 97.2856 40.359 97.1229 40.5867C96.9031 40.9009 97.1601 41.2071 98.1596 41.7802C99.6083 42.5753 99.7009 42.7358 98.8793 43.3973C98.4211 43.7154 98.1193 43.7024 97.143 43.1695C96.1034 42.6196 95.6751 42.5727 93.7777 42.946C91.0593 43.4724 88.5063 45.0266 87.5315 46.7662C86.0916 49.2291 85.4706 49.7748 83.8856 49.9945C79.6478 50.6225 78.8161 50.9422 77.4554 52.4767C76.758 53.3072 75.9273 54.509 75.6312 55.1079L75.1277 56.2277L77.6081 57.0958C78.9347 57.587 80.1811 58.1244 80.3054 58.2934C80.5162 58.5194 80.2432 59.1584 79.4588 60.4404C78.8225 61.423 78.1986 62.6123 78.0799 63.0553C77.868 63.8463 77.8279 63.8695 77.3793 63.1389C76.7833 62.1992 76.1459 62.2997 74.7264 63.5471C72.2825 65.707 72.0449 68.4921 74.0415 71.6722L75.2019 73.5432L73.769 73.7018C72.5112 73.8396 72.2812 73.8119 72.1067 73.3242C72.0163 73.0287 71.9822 67.9666 72.0652 62.088C72.1482 56.2094 72.1182 51.3857 72.0232 51.3603C71.7385 51.284 31.2687 49.9357 31.18 50.0137C31.0998 50.06 31.0202 54.7865 30.9395 60.5301C30.8819 66.3137 30.8341 71.0487 30.8341 71.0487C30.8256 71.0803 30.4436 71.1136 29.9752 71.0899C29.0616 71.0824 28.7361 71.5378 29.3242 72.0006C29.5519 72.1634 34.7615 72.3384 40.9503 72.4028C50.0784 72.5087 52.182 72.6315 52.2385 73.0536C52.2656 73.3321 52.626 73.6322 53.069 73.7509C54.0815 74.0222 54.9301 75.5382 54.9344 77.1672C54.9405 79.1697 54.8919 79.2245 52.9425 78.9057C51.8328 78.744 50.6321 78.7953 49.849 79.0602C48.7618 79.4472 48.5273 79.6896 48.2306 80.797C48.0101 81.6197 48.0197 82.47 48.3038 83.0549L48.6931 84.007L46.956 86.1867C44.6905 89.0727 43.1025 91.835 43.0759 92.947C43.0577 94.0273 43.1843 94.0613 48.9216 94.0386L52.648 94.0536L52.5304 95.3786C52.2351 98.7586 53.8938 102.187 56.8221 104.295C59.1307 105.931 62.5039 106.631 65.1845 105.993C70.0116 104.81 73.2073 100.478 73.1863 95.1142C73.1722 94.5339 76.3522 94.4365 76.5013 95.019C76.8628 96.2011 78.0127 96.3396 90.1473 96.7424C96.8423 96.9424 103.04 96.9752 103.861 96.8221C104.713 96.6776 106.219 95.9957 107.215 95.3132C108.831 94.22 108.974 94.1906 108.613 94.9076L108.217 95.7512L109.422 95.4298C110.197 95.1965 111.13 94.4971 112.288 93.2134C113.203 92.2038 113.987 91.4303 114.033 91.5106C114.08 91.5908 113.798 92.2615 113.42 93.0418C112.582 94.6486 112.409 97.8241 113.019 99.8526C114.658 105.379 120.797 108.414 126.328 106.505C136.293 103.105 135.445 88.8036 125.151 86.7234C123.931 86.4646 122.592 86.2752 122.21 86.3085L121.509 86.392L122.286 86.0237C123.823 85.3503 126.545 85.5709 129.896 86.6046C131.611 87.1659 133.301 87.822 133.615 88.0418C134.093 88.4074 134.119 88.3125 133.618 87.3983C132.841 85.8675 131.102 83.8756 129.673 82.8822C127.073 81.0665 122.474 80.5124 118.58 81.5037C117.774 81.7285 117.073 81.8121 117.035 81.7002C116.989 81.6199 116.693 80.3198 116.408 78.8529C115.703 75.4084 114.597 72.1956 113.209 69.6534C112.03 67.4722 111.64 65.6381 112.047 64.1193C112.276 63.265 112.364 63.1871 112.817 63.6476C114.445 65.1688 115.805 64.1428 115.964 61.2691C116.092 58.3869 115.238 56.7674 113.954 57.5086C113.673 57.6708 113.27 57.5289 112.73 57.0113C111.392 55.8048 109.799 55.5476 108.553 56.4007C107.966 56.8199 107.39 57.0724 107.272 57.0069C107.154 56.9413 106.409 56.8096 105.616 56.7327L104.196 56.5896L104.063 57.8428C103.822 60.3894 104.03 61.259 104.961 62.0852C105.651 62.6768 106.054 62.8187 106.596 62.6927C107.242 62.5606 107.482 62.9301 108.763 66.1221C109.556 68.0981 110.187 69.7932 110.17 69.8565C110.145 69.9514 109.687 70.2695 109.165 70.5706C107.039 71.7983 106.741 73.9228 107.403 82.7141C107.674 86.0083 107.628 87.3186 107.176 89.1306C106.837 90.3963 106.388 91.5647 106.148 91.7037C105.947 91.8195 104.377 92.1109 102.689 92.3368L99.639 92.7066L98.9627 91.8133C98.3475 91.0719 98.0712 90.9639 97.0541 90.9627C95.3133 91.005 95.3449 91.0134 95.879 89.02L96.3939 87.225L96.8001 88.1138C97.1685 88.8908 97.2233 88.9394 97.5171 88.4755C98.293 87.2251 101.421 77.4487 102.397 73.3014C103.852 67.1122 103.537 65.5018 100.722 64.2387C100.083 63.9657 99.5263 63.5114 99.4907 63.2645C99.4867 63.026 100.246 61.839 101.252 60.6163C102.257 59.3937 103.188 57.9473 103.34 57.3777C103.586 56.4602 103.517 56.3398 102.833 56.3601C102.396 56.3448 101.246 56.2063 100.231 56.07L98.3686 55.8082L98.3721 54.6561C98.3795 53.7425 98.6186 53.23 99.5589 52.1255C100.905 50.5192 101.661 48.0766 101.321 46.5612C101.078 45.4446 101.699 44.3903 102.49 44.6023C102.712 44.6616 104.411 45.6596 106.275 46.8034C110.026 49.1311 109.963 49.1142 110.073 48.7028C110.124 48.513 111.1 47.6553 112.26 46.7452C114.353 45.1356 115.276 44.0943 115.021 43.653C114.952 43.5326 115.254 43.0371 115.715 42.584C116.524 41.7156 117.473 38.6803 118.218 34.5054C118.9 30.822 117.175 26.6293 114.196 24.7119C112.458 23.602 108.687 22.4897 106.273 22.3856ZM99.1414 64.1883C98.9464 64.916 98.7712 64.9369 96.7903 64.6096C94.9991 64.3331 92.5249 63.5684 90.9729 62.7795C90.6418 62.623 89.3923 64.6282 87.897 67.551C87.6093 68.1182 87.2799 68.3352 86.8686 68.225C86.299 68.0723 86.2951 67.8339 86.702 66.3151C86.9649 65.3343 87.091 63.9776 87.0074 63.277C86.7878 61.692 86.7137 61.8418 88.0455 61.5543C89.6327 61.1996 91.6623 61.4721 95.7926 62.511L99.3449 63.4289L99.1414 64.1883ZM95.368 71.6893C93.7954 74.0149 93.4568 74.772 91.9529 79.6255C90.9977 82.5574 90.0471 85.2191 89.7725 85.4847C89.521 85.7903 88.8948 87.1147 88.3952 88.473L87.4955 90.945L86.1628 88.4514C84.5313 85.3012 84.2512 83.0557 85.116 79.8283C85.9723 76.6326 88.3333 73.2635 89.7091 73.1913C91.6252 73.1281 92.8577 71.1862 91.9775 69.6617C91.5752 69.0113 91.6871 68.9735 94.2845 69.0251C95.7785 69.0185 97.0255 69.0474 97.0487 69.0875C97.0803 69.096 96.3214 70.283 95.368 71.6893ZM94.7699 88.3498C95.0038 88.616 94.936 88.8691 94.4817 89.4256C94.1415 89.8092 93.8052 90.4313 93.7205 90.7477C93.5763 91.2856 93.4413 91.2834 92.8763 90.8607C92.4441 90.5753 91.748 90.3888 91.0326 90.4006C90.4207 90.4062 89.8805 90.3971 89.8489 90.3886C89.7856 90.3716 89.8388 90.0468 89.949 89.6354C90.1864 88.7495 90.856 88.1489 91.1995 88.5122C91.3323 88.6496 92.1206 87.606 93.0445 86.0562C96.5691 80.1163 96.3601 80.2638 95.3528 84.4026C94.7972 86.7293 94.5824 88.1639 94.7699 88.3498ZM126.515 94.4142C127.413 95.3669 127.904 97.3299 127.557 98.6272C127.209 99.9245 125.802 101.379 124.548 101.755C123.885 101.95 122.805 101.932 121.982 101.712C120.211 101.237 119.016 100.001 118.709 98.3592C118.418 96.7889 118.723 95.6498 119.761 94.4357C120.847 93.1667 122.5 92.6939 124.272 93.1687C125.094 93.3891 126.039 93.9136 126.515 94.4142ZM65.7318 94.7107C67.79 97.5344 65.4414 101.11 62.1106 100.252C61.0665 99.9719 60.5879 99.6063 59.9834 98.6982C59.3094 97.6698 59.2445 97.2794 59.5836 96.0137C59.9227 94.7481 60.1742 94.4424 61.2721 93.8888C62.7627 93.1352 64.8703 93.4964 65.7318 94.7107Z" fill="#BD2024"/>
<path d="M77.5635 23.8493C63.6717 23.0435 55.5375 22.8988 42.2857 23.2479C29.5911 23.5429 29.4284 23.7706 41.2799 24.4706C53.298 25.1813 81.4485 25.2973 86.8384 24.6728C87.9611 24.5328 85.2795 24.289 77.5635 23.8493Z" fill="#BD2024"/>
<path d="M66.8045 32.3612C54.8095 31.6906 36.9438 31.4139 24.0825 31.6981C14.6713 31.8894 14.3611 31.9081 16.6438 32.2484C24.2852 33.3464 59.1262 33.9325 71.1693 33.1577C74.0013 32.967 72.2186 32.6589 66.8045 32.3612Z" fill="#BD2024"/>
<path d="M74.6692 39.0807C68.4177 38.4908 61.174 38.3133 55.7972 38.6361C48.042 39.1016 48.4952 39.5621 57.2978 40.1234C64.4968 40.5941 76.4591 40.3742 77.5107 39.7403C77.7113 39.6245 75.8275 39.1876 74.6692 39.0807Z" fill="#BD2024"/>
<path d="M51.7313 43.6848C38.7186 43.5216 33.9899 43.5771 33.9769 43.8788C33.8981 46.1977 33.9066 46.1661 32.4844 46.158C31.3639 46.163 31.1232 46.302 31.1141 46.8422C31.1158 47.2157 31.3559 47.5852 31.6407 47.6615C32.3684 47.8565 71.7578 49.1866 72.0387 49.0244C72.159 48.955 72.2715 48.4086 72.2891 47.8368C72.2858 47.0898 71.8773 46.336 71.0197 45.3601C70.3095 44.5933 69.6688 43.9469 69.597 43.9615C69.5338 43.9446 61.486 43.8569 51.7313 43.6848Z" fill="#BD2024"/>
</svg>
